<?xml version="1.0" encoding="UTF-8"?>
<svg xmlns="http://www.w3.org/2000/svg" xmlns:xlink="http://www.w3.org/1999/xlink" width="16pt" height="16pt" viewBox="0 0 16 16" version="1.1">
<g id="surface1">
<path style="s stroke:none;fill-rule:nonzero;fill:rgb(0%,0%,100%);fill-opacity:1;" d="M 3.25 3.074219 L 5.097656 3.886719 C 4.734375 4.429688 4.542969 5.050781 4.542969 5.707031 C 4.542969 7.488281 5.992188 8.957031 7.792969 8.957031 C 9.59375 8.957031 11.042969 7.507812 11.042969 5.707031 C 11.042969 5.066406 10.851562 4.429688 10.503906 3.90625 L 12.128906 3.140625 L 12.128906 6.230469 L 11.632812 7.28125 C 11.601562 7.363281 11.601562 7.441406 11.648438 7.507812 C 11.695312 7.570312 11.777344 7.617188 11.855469 7.617188 L 12.796875 7.617188 C 12.875 7.617188 12.957031 7.585938 12.988281 7.507812 C 13.035156 7.441406 13.035156 7.363281 13.003906 7.28125 L 12.574219 6.230469 L 12.574219 2.933594 C 12.574219 2.804688 12.558594 2.710938 12.335938 2.613281 C 12.285156 2.597656 7.90625 0.652344 7.90625 0.652344 C 7.839844 0.621094 7.777344 0.621094 7.714844 0.652344 L 3.25 2.628906 C 3.171875 2.660156 3.109375 2.757812 3.109375 2.851562 C 3.109375 2.949219 3.15625 3.027344 3.25 3.074219 Z M 10.550781 5.707031 C 10.550781 7.234375 9.308594 8.476562 7.777344 8.476562 C 6.246094 8.476562 5.003906 7.234375 5.003906 5.707031 C 5.003906 5.117188 5.195312 4.558594 5.53125 4.078125 L 7.695312 5.050781 C 7.730469 5.066406 7.761719 5.066406 7.792969 5.066406 C 7.824219 5.066406 7.855469 5.066406 7.886719 5.050781 L 10.023438 4.09375 C 10.375 4.574219 10.550781 5.132812 10.550781 5.707031 Z M 12.222656 7.140625 L 12.335938 6.902344 L 12.429688 7.140625 Z M 7.808594 1.132812 L 11.679688 2.851562 L 7.808594 4.574219 L 3.9375 2.851562 Z M 7.808594 1.132812 "/>
<path style=" stroke:none;fill-rule:nonzero;fill:rgb(100%,0%,0%);fill-opacity:1;" d="M 7.871094 9.53125 C 4.765625 9.53125 2.230469 12.0625 2.230469 15.171875 C 2.230469 15.296875 2.34375 15.410156 2.46875 15.410156 L 13.273438 15.410156 C 13.402344 15.410156 13.515625 15.296875 13.515625 15.171875 C 13.515625 12.0625 10.980469 9.53125 7.871094 9.53125 Z M 2.726562 14.933594 C 2.851562 12.191406 5.117188 10.007812 7.886719 10.007812 C 10.660156 10.007812 12.910156 12.207031 13.035156 14.933594 Z M 2.726562 14.933594 "/>
</g>
</svg>
