<?xml version="1.0" encoding="UTF-8"?>
<svg xmlns="http://www.w3.org/2000/svg" xmlns:xlink="http://www.w3.org/1999/xlink" width="16pt" height="16pt" viewBox="0 0 16 16" version="1.1">
<g id="surface1">
<path style=" stroke:none;fill-rule:nonzero;fill:rgb(0%,0%,0%);fill-opacity:1;" d="M 15.6875 4.125 L 9.378906 4.125 L 8.3125 3.058594 L 8.3125 2.402344 L 10.609375 1.542969 C 10.730469 1.496094 10.8125 1.378906 10.8125 1.25 C 10.8125 1.121094 10.730469 1.003906 10.609375 0.957031 L 8.109375 0.0195312 C 8.015625 -0.015625 7.90625 -0.00390625 7.820312 0.0546875 C 7.738281 0.113281 7.6875 0.210938 7.6875 0.3125 L 7.6875 3.058594 L 6.621094 4.125 L 0.3125 4.125 C 0.140625 4.125 0 4.265625 0 4.4375 L 0 15.6875 C 0 15.859375 0.140625 16 0.3125 16 L 15.6875 16 C 15.859375 16 16 15.859375 16 15.6875 L 16 4.4375 C 16 4.265625 15.859375 4.125 15.6875 4.125 Z M 8.3125 0.761719 L 9.609375 1.25 L 8.3125 1.738281 Z M 15.375 4.75 L 15.375 5.375 L 14.84375 5.375 C 14.671875 5.375 14.53125 5.515625 14.53125 5.6875 C 14.53125 5.859375 14.671875 6 14.84375 6 L 15.375 6 L 15.375 6.625 L 11.878906 6.625 L 10.003906 4.75 Z M 0.625 6 L 1.15625 6 C 1.328125 6 1.46875 5.859375 1.46875 5.6875 C 1.46875 5.515625 1.328125 5.375 1.15625 5.375 L 0.625 5.375 L 0.625 4.75 L 5.996094 4.75 L 4.121094 6.625 L 0.625 6.625 Z M 7.6875 15.375 L 6.4375 15.375 L 6.4375 12.5625 C 6.4375 12.390625 6.578125 12.25 6.75 12.25 L 7.6875 12.25 Z M 9.5625 15.375 L 8.3125 15.375 L 8.3125 12.25 L 9.25 12.25 C 9.421875 12.25 9.5625 12.390625 9.5625 12.5625 Z M 15.375 15.375 L 10.1875 15.375 L 10.1875 14.75 L 10.71875 14.75 C 10.890625 14.75 11.03125 14.609375 11.03125 14.4375 C 11.03125 14.265625 10.890625 14.125 10.71875 14.125 L 10.1875 14.125 L 10.1875 12.5625 C 10.1875 12.046875 9.765625 11.625 9.25 11.625 L 6.75 11.625 C 6.234375 11.625 5.8125 12.046875 5.8125 12.5625 L 5.8125 14.125 L 5.28125 14.125 C 5.109375 14.125 4.96875 14.265625 4.96875 14.4375 C 4.96875 14.609375 5.109375 14.75 5.28125 14.75 L 5.8125 14.75 L 5.8125 15.375 L 0.625 15.375 L 0.625 7.25 L 4.25 7.25 C 4.332031 7.25 4.414062 7.21875 4.472656 7.160156 L 8 3.628906 L 9.027344 4.660156 L 11.527344 7.160156 C 11.585938 7.21875 11.667969 7.25 11.75 7.25 L 15.375 7.25 Z M 15.375 15.375 "/>
<path style=" stroke:none;fill-rule:nonzero;fill:rgb(0%,0%,0%);fill-opacity:1;" d="M 8 5.539062 C 7.3125 5.539062 6.75 6.101562 6.75 6.789062 C 6.75 7.480469 7.3125 8.039062 8 8.039062 C 8.6875 8.039062 9.25 7.480469 9.25 6.789062 C 9.25 6.101562 8.6875 5.539062 8 5.539062 Z M 8 7.414062 C 7.65625 7.414062 7.375 7.136719 7.375 6.789062 C 7.375 6.445312 7.65625 6.164062 8 6.164062 C 8.34375 6.164062 8.625 6.445312 8.625 6.789062 C 8.625 7.136719 8.34375 7.414062 8 7.414062 Z M 8 7.414062 "/>
<path style=" stroke:none;fill-rule:nonzero;fill:rgb(0%,0%,0%);fill-opacity:1;" d="M 2.8125 8.5 L 1.5625 8.5 C 1.390625 8.5 1.25 8.640625 1.25 8.8125 L 1.25 10.0625 C 1.25 10.234375 1.390625 10.375 1.5625 10.375 L 2.8125 10.375 C 2.984375 10.375 3.125 10.234375 3.125 10.0625 L 3.125 8.8125 C 3.125 8.640625 2.984375 8.5 2.8125 8.5 Z M 2.5 9.75 L 1.875 9.75 L 1.875 9.125 L 2.5 9.125 Z M 2.5 9.75 "/>
<path style=" stroke:none;fill-rule:nonzero;fill:rgb(0%,0%,0%);fill-opacity:1;" d="M 6.125 8.5 L 4.875 8.5 C 4.703125 8.5 4.5625 8.640625 4.5625 8.8125 L 4.5625 10.0625 C 4.5625 10.234375 4.703125 10.375 4.875 10.375 L 6.125 10.375 C 6.296875 10.375 6.4375 10.234375 6.4375 10.0625 L 6.4375 8.8125 C 6.4375 8.640625 6.296875 8.5 6.125 8.5 Z M 5.8125 9.75 L 5.1875 9.75 L 5.1875 9.125 L 5.8125 9.125 Z M 5.8125 9.75 "/>
<path style=" stroke:none;fill-rule:nonzero;fill:rgb(0%,0%,0%);fill-opacity:1;" d="M 2.8125 11.9375 L 1.5625 11.9375 C 1.390625 11.9375 1.25 12.078125 1.25 12.25 L 1.25 13.5 C 1.25 13.671875 1.390625 13.8125 1.5625 13.8125 L 2.8125 13.8125 C 2.984375 13.8125 3.125 13.671875 3.125 13.5 L 3.125 12.25 C 3.125 12.078125 2.984375 11.9375 2.8125 11.9375 Z M 2.5 13.1875 L 1.875 13.1875 L 1.875 12.5625 L 2.5 12.5625 Z M 2.5 13.1875 "/>
<path style=" stroke:none;fill-rule:nonzero;fill:rgb(0%,0%,0%);fill-opacity:1;" d="M 13.1875 10.375 L 14.4375 10.375 C 14.609375 10.375 14.75 10.234375 14.75 10.0625 L 14.75 8.8125 C 14.75 8.640625 14.609375 8.5 14.4375 8.5 L 13.1875 8.5 C 13.015625 8.5 12.875 8.640625 12.875 8.8125 L 12.875 10.0625 C 12.875 10.234375 13.015625 10.375 13.1875 10.375 Z M 13.5 9.125 L 14.125 9.125 L 14.125 9.75 L 13.5 9.75 Z M 13.5 9.125 "/>
<path style=" stroke:none;fill-rule:nonzero;fill:rgb(0%,0%,0%);fill-opacity:1;" d="M 11.4375 10.0625 L 11.4375 8.8125 C 11.4375 8.640625 11.296875 8.5 11.125 8.5 L 9.875 8.5 C 9.703125 8.5 9.5625 8.640625 9.5625 8.8125 L 9.5625 10.0625 C 9.5625 10.234375 9.703125 10.375 9.875 10.375 L 11.125 10.375 C 11.296875 10.375 11.4375 10.234375 11.4375 10.0625 Z M 10.8125 9.75 L 10.1875 9.75 L 10.1875 9.125 L 10.8125 9.125 Z M 10.8125 9.75 "/>
<path style=" stroke:none;fill-rule:nonzero;fill:rgb(0%,0%,0%);fill-opacity:1;" d="M 13.1875 13.8125 L 14.4375 13.8125 C 14.609375 13.8125 14.75 13.671875 14.75 13.5 L 14.75 12.25 C 14.75 12.078125 14.609375 11.9375 14.4375 11.9375 L 13.1875 11.9375 C 13.015625 11.9375 12.875 12.078125 12.875 12.25 L 12.875 13.5 C 12.875 13.671875 13.015625 13.8125 13.1875 13.8125 Z M 13.5 12.5625 L 14.125 12.5625 L 14.125 13.1875 L 13.5 13.1875 Z M 13.5 12.5625 "/>
<path style=" stroke:none;fill-rule:nonzero;fill:rgb(0%,0%,0%);fill-opacity:1;" d="M 11.617188 14.125 C 11.445312 14.125 11.304688 14.265625 11.304688 14.4375 C 11.304688 14.609375 11.445312 14.75 11.617188 14.75 L 11.625 14.75 C 11.796875 14.75 11.9375 14.609375 11.9375 14.4375 C 11.9375 14.265625 11.796875 14.125 11.625 14.125 Z M 11.617188 14.125 "/>
<path style=" stroke:none;fill-rule:nonzero;fill:rgb(0%,0%,0%);fill-opacity:1;" d="M 4.382812 14.125 L 4.375 14.125 C 4.203125 14.125 4.0625 14.265625 4.0625 14.4375 C 4.0625 14.609375 4.203125 14.75 4.375 14.75 L 4.382812 14.75 C 4.554688 14.75 4.695312 14.609375 4.695312 14.4375 C 4.695312 14.265625 4.554688 14.125 4.382812 14.125 Z M 4.382812 14.125 "/>
<path style=" stroke:none;fill-rule:nonzero;fill:rgb(0%,0%,0%);fill-opacity:1;" d="M 2.0625 5.375 L 2.054688 5.375 C 1.882812 5.375 1.742188 5.515625 1.742188 5.6875 C 1.742188 5.859375 1.882812 6 2.054688 6 L 2.0625 6 C 2.234375 6 2.375 5.859375 2.375 5.6875 C 2.375 5.515625 2.234375 5.375 2.0625 5.375 Z M 2.0625 5.375 "/>
<path style=" stroke:none;fill-rule:nonzero;fill:rgb(0%,0%,0%);fill-opacity:1;" d="M 13.9375 6 L 13.945312 6 C 14.117188 6 14.257812 5.859375 14.257812 5.6875 C 14.257812 5.515625 14.117188 5.375 13.945312 5.375 L 13.9375 5.375 C 13.765625 5.375 13.625 5.515625 13.625 5.6875 C 13.625 5.859375 13.765625 6 13.9375 6 Z M 13.9375 6 "/>
</g>
</svg>
